<svg viewBox="0 0 512 512" version="1.1" xmlns="http://www.w3.org/2000/svg" desc="Created with imagetracer.js version 1.2.6" ><path fill="rgb(0,0,0)" stroke="rgb(0,0,0)" stroke-width="0" opacity="0" d="M 0 0 L 512 0 L 512 512 L 0 512 L 0 0 Z M 255 25 L 247 27 L 240 31 Q 232 37 230 49 L 230 230 L 49 230 L 44 231 L 35 236 L 29 243 L 25 255 Q 25 266 31 273 Q 37 280 49 282 L 230 282 L 230 464 L 231 469 L 236 478 L 243 483 L 255 487 Q 266 487 273 481 Q 280 475 282 464 L 282 282 L 464 282 L 469 281 L 478 276 L 483 270 L 487 258 Q 487 246 481 240 Q 475 232 464 230 L 282 230 L 282 49 L 281 44 L 276 35 Q 269 26 255 25 Z " /><path fill="rgb(0,0,0)" stroke="rgb(0,0,0)" stroke-width="0" opacity="0.6" d="M 254.5 25 L 258 25.5 L 254.5 26 L 254.5 25 Z " /><path fill="rgb(0,0,0)" stroke="rgb(0,0,0)" stroke-width="0" opacity="0.6" d="M 239.5 31 L 236.5 35 L 239.5 31 Z " /><path fill="rgb(0,0,0)" stroke="rgb(0,0,0)" stroke-width="0" opacity="0.6" d="M 272.5 31 L 275.5 35 L 272.5 31 Z " /><path fill="rgb(0,0,0)" stroke="rgb(0,0,0)" stroke-width="0" opacity="0.6" d="M 230.5 48 L 231 229.5 L 229.5 231 L 48.5 231 L 48.5 230 L 230 230 L 230.5 48 Z " /><path fill="rgb(0,0,0)" stroke="rgb(0,0,0)" stroke-width="0" opacity="0.6" d="M 281.5 48 L 282 230 L 464 230.5 L 282.5 231 L 281 229.5 L 281.5 48 Z " /><path fill="rgb(0,0,0)" stroke="rgb(0,0,0)" stroke-width="0" opacity="0.6" d="M 34.5 236 L 31.5 240 L 34.5 236 Z " /><path fill="rgb(0,0,0)" stroke="rgb(0,0,0)" stroke-width="0" opacity="0.6" d="M 477.5 236 L 480.5 240 L 477.5 236 Z " /><path fill="rgb(0,0,0)" stroke="rgb(0,0,0)" stroke-width="0" opacity="0.6" d="M 25.5 254 L 26 257.5 L 25 257.5 L 25.5 254 Z " /><path fill="rgb(0,0,0)" stroke="rgb(0,0,0)" stroke-width="0" opacity="0.6" d="M 486.5 254 L 487 257.5 L 486 257.5 L 486.5 254 Z " /><path fill="rgb(0,0,0)" stroke="rgb(0,0,0)" stroke-width="0" opacity="0.6" d="M 31.5 272 L 34.5 276 L 31.5 272 Z " /><path fill="rgb(0,0,0)" stroke="rgb(0,0,0)" stroke-width="0" opacity="0.6" d="M 480.5 272 L 477.5 276 L 480.5 272 Z " /><path fill="rgb(0,0,0)" stroke="rgb(0,0,0)" stroke-width="0" opacity="0.6" d="M 48.5 281 L 229.5 281 L 231 282.5 L 230.5 464 L 230 282 L 48.5 282 L 48.5 281 Z " /><path fill="rgb(0,0,0)" stroke="rgb(0,0,0)" stroke-width="0" opacity="0.6" d="M 282.5 281 L 464 281.5 L 282 282 L 281.5 464 L 281 282.5 L 282.5 281 Z " /><path fill="rgb(0,0,0)" stroke="rgb(0,0,0)" stroke-width="0" opacity="0.6" d="M 236.5 477 L 239.5 481 L 236.5 477 Z " /><path fill="rgb(0,0,0)" stroke="rgb(0,0,0)" stroke-width="0" opacity="0.6" d="M 275.5 477 L 272.5 481 L 275.5 477 Z " /><path fill="rgb(0,0,0)" stroke="rgb(0,0,0)" stroke-width="0" opacity="0.6" d="M 254.5 486 L 258 486.5 L 254.5 487 L 254.5 486 Z " /><path fill="rgb(0,0,0)" stroke="rgb(0,0,0)" stroke-width="0" opacity="1" d="M 241.5 30 L 239.5 33 L 241.5 30 Z " /><path fill="rgb(0,0,0)" stroke="rgb(0,0,0)" stroke-width="0" opacity="1" d="M 270.5 30 L 272.5 33 L 270.5 30 Z " /><path fill="rgb(0,0,0)" stroke="rgb(0,0,0)" stroke-width="0" opacity="1" d="M 237.5 34 L 235.5 37 L 237.5 34 Z " /><path fill="rgb(0,0,0)" stroke="rgb(0,0,0)" stroke-width="0" opacity="1" d="M 274.5 34 L 276.5 37 L 274.5 34 Z " /><path fill="rgb(0,0,0)" stroke="rgb(0,0,0)" stroke-width="0" opacity="1" d="M 36.5 235 L 34.5 238 L 36.5 235 Z " /><path fill="rgb(0,0,0)" stroke="rgb(0,0,0)" stroke-width="0" opacity="1" d="M 475.5 235 L 477.5 238 L 475.5 235 Z " /><path fill="rgb(0,0,0)" stroke="rgb(0,0,0)" stroke-width="0" opacity="1" d="M 32.5 239 L 30.5 242 L 32.5 239 Z " /><path fill="rgb(0,0,0)" stroke="rgb(0,0,0)" stroke-width="0" opacity="1" d="M 479.5 239 L 481.5 242 L 479.5 239 Z " /><path fill="rgb(0,0,0)" stroke="rgb(0,0,0)" stroke-width="0" opacity="1" d="M 30.5 270 L 32.5 273 L 30.5 270 Z " /><path fill="rgb(0,0,0)" stroke="rgb(0,0,0)" stroke-width="0" opacity="1" d="M 481.5 270 L 479.5 273 L 481.5 270 Z " /><path fill="rgb(0,0,0)" stroke="rgb(0,0,0)" stroke-width="0" opacity="1" d="M 34.5 274 L 36.5 277 L 34.5 274 Z " /><path fill="rgb(0,0,0)" stroke="rgb(0,0,0)" stroke-width="0" opacity="1" d="M 477.5 274 L 475.5 277 L 477.5 274 Z " /><path fill="rgb(0,0,0)" stroke="rgb(0,0,0)" stroke-width="0" opacity="1" d="M 235.5 475 L 237.5 478 L 235.5 475 Z " /><path fill="rgb(0,0,0)" stroke="rgb(0,0,0)" stroke-width="0" opacity="1" d="M 276.5 475 L 274.5 478 L 276.5 475 Z " /><path fill="rgb(0,0,0)" stroke="rgb(0,0,0)" stroke-width="0" opacity="1" d="M 239.5 479 L 241.5 482 L 239.5 479 Z " /><path fill="rgb(0,0,0)" stroke="rgb(0,0,0)" stroke-width="0" opacity="1" d="M 272.5 479 L 270.5 482 L 272.5 479 Z " /><path fill="rgb(0,0,0)" stroke="rgb(0,0,0)" stroke-width="0" opacity="1" d="M 252.5 26 L 263.5 27 L 274 33 L 279 40.5 L 281 46.5 L 281 231 L 465.5 231 L 471.5 233 L 479 238 L 485 248.5 L 486 259.5 L 479 274 L 471.5 279 L 465.5 281 L 281 281 L 281 465.5 L 279 471.5 L 274 479 L 263.5 485 L 252.5 486 L 238 479 L 233 471.5 L 231 465.5 L 231 281 L 46.5 281 L 40.5 279 L 33 274 L 27 263.5 L 26 252.5 L 33 238 L 40.5 233 L 46.5 231 L 231 231 L 231 46.5 L 233 40.5 L 238 33 L 252.5 26 Z " /></svg>