<svg viewBox="0 0 512 512" version="1.1" xmlns="http://www.w3.org/2000/svg" desc="Created with imagetracer.js version 1.2.6" ><path fill="#000000" stroke="rgb(0,0,0)" stroke-width="0" opacity="1" d="M 168.5 21 L 343.5 21 Q 354.4 22.6 359 30.5 L 363 40.5 L 363 128 L 473.5 128 Q 481.3 130.3 486 135.5 L 490 142.5 L 491 147.5 L 491 471.5 Q 489.1 483.1 480.5 488 L 471.5 491 L 40.5 491 Q 29.7 489.3 25 481.5 L 21 471.5 L 21 147.5 Q 22.6 138 28.5 133 L 38.5 128 L 149 128 L 149 40.5 Q 150.6 29.6 158.5 25 L 168.5 21 Z M 192 64 L 192 128 L 320 128 L 320 64 L 192 64 Z M 85 171 L 92 182 Q 123 217 169 238 L 204 250 L 224 254 L 242 255 L 243 256 L 270 256 L 271 255 L 289 254 L 326 245 Q 368 230 399 203 L 428 172 L 85 171 Z M 65 214 L 64 448 L 448 448 L 448 214 L 442 221 Q 407 256 359 278 L 338 286 L 308 294 L 290 296 L 289 297 L 281 297 L 280 298 L 266 298 L 265 299 L 233 298 L 232 297 L 211 295 Q 185 290 164 282 Q 111 261 75 225 L 65 214 Z " /><path fill="#000000" stroke="rgb(0,0,0)" stroke-width="0" opacity="1" d="M 207.5 363 L 304.5 363 Q 312.6 365.9 317 372.5 Q 321.4 377.6 320 388.5 Q 317.5 397.5 310.5 402 L 303.5 405 L 207.5 405 Q 199.4 402.1 195 395.5 Q 190.7 390.4 192 379.5 Q 194.4 370.4 201.5 366 L 207.5 363 Z " /><path fill="#000000" stroke="rgb(0,0,0)" stroke-width="0" opacity="0" d="M 0 0 L 512 0 L 512 512 L 0 512 L 0 0 Z M 169 21 L 159 25 Q 151 30 149 41 L 149 128 L 39 128 L 29 133 Q 23 138 21 148 L 21 472 L 25 482 Q 30 489 41 491 L 472 491 L 481 488 Q 489 483 491 472 L 491 148 L 490 143 L 486 136 Q 481 130 474 128 L 363 128 L 363 41 L 359 31 Q 354 23 344 21 L 169 21 Z " /><path fill="#000000" stroke="rgb(0,0,0)" stroke-width="0" opacity="0" d="M 192 64 L 320 64 L 320 128 L 192 128 L 192 64 Z " /><path fill="#000000" stroke="rgb(0,0,0)" stroke-width="0" opacity="0" d="M 84.5 171 L 428 171.5 L 398.5 203 Q 368.1 230.1 325.5 245 L 288.5 254 L 270.5 255 L 269.5 256 L 242.5 256 L 241.5 255 L 223.5 254 L 203.5 250 L 168.5 238 Q 122.7 217.3 92 181.5 L 84.5 171 Z " /><path fill="#000000" stroke="rgb(0,0,0)" stroke-width="0" opacity="0" d="M 64.5 214 L 74.5 225 Q 111.1 261.4 163.5 282 Q 185.1 290.4 210.5 295 L 231.5 297 L 232.5 298 L 264.5 299 L 265.5 298 L 279.5 298 L 280.5 297 L 288.5 297 L 289.5 296 L 307.5 294 L 337.5 286 L 358.5 278 Q 407.4 256.4 442 220.5 L 447.5 214 L 448 448 L 64 448 L 64.5 214 Z M 208 363 L 202 366 Q 194 370 192 380 Q 191 390 195 396 Q 199 402 208 405 L 304 405 L 311 402 Q 318 398 320 389 Q 321 378 317 373 Q 313 366 305 363 L 208 363 Z " /></svg>