<svg viewBox="0 0 512 512" version="1.1" xmlns="http://www.w3.org/2000/svg" desc="Created with imagetracer.js version 1.2.6" ><path fill="#000000" stroke="rgb(0,0,0)" stroke-width="0" opacity="1" d="M 254.5 69 Q 266.3 69.3 271 76.5 L 275 86.5 L 275 425.5 L 273 432.5 L 267.5 439 Q 262.8 442.8 254.5 443 L 247.5 441 L 241 435.5 L 237 425.5 L 237 86.5 L 239 79.5 L 244.5 73 L 254.5 69 Z " /><path fill="#000000" stroke="rgb(0,0,0)" stroke-width="0" opacity="1" d="M 95.5 107 L 186.5 107 Q 193.3 109.3 197 114.5 Q 201.2 119.3 200 129.5 L 195 139 L 185.5 144 L 101.5 144 Q 84.4 147.4 76 159.5 L 72 166.5 L 69 178.5 L 69 333.5 L 74 349.5 L 84.5 361 Q 91.1 366.4 101.5 368 L 185.5 368 L 195 373 L 200 382.5 L 200 390.5 Q 198.2 398.2 192.5 402 L 186.5 405 L 96.5 405 L 86.5 403 L 71.5 397 Q 58.4 389.6 49 378.5 L 37 358.5 L 32 338.5 L 32 173.5 Q 37.5 140 59.5 123 Q 73.5 111 95.5 107 Z " /><path fill="#000000" stroke="rgb(0,0,0)" stroke-width="0" opacity="1" d="M 325.5 107 L 415.5 107 Q 416.8 109.3 421.5 108 Q 448.1 114.9 463 133.5 L 475 153.5 L 480 173.5 L 480 338.5 L 478 349.5 L 470 368.5 Q 463.3 379.8 453.5 388 Q 439.1 401.1 415.5 405 L 325.5 405 Q 318.8 402.8 315 397.5 Q 310.8 392.7 312 382.5 L 317 373 L 326.5 368 L 410.5 368 Q 427.6 364.6 436 352.5 L 440 345.5 L 443 333.5 L 443 178.5 L 438 162.5 L 427.5 151 Q 420.9 145.6 410.5 144 L 326.5 144 L 317 139 L 312 129.5 L 312 121.5 Q 313.8 113.9 319.5 110 L 325.5 107 Z " /><path fill="#000000" stroke="rgb(0,0,0)" stroke-width="0" opacity="0" d="M 0 0 L 512 0 L 512 512 L 0 512 L 0 0 Z M 255 69 L 245 73 L 239 80 L 237 87 L 237 426 L 241 436 L 248 441 L 255 443 Q 263 443 268 439 L 273 433 L 275 426 L 275 87 L 271 77 Q 266 69 255 69 Z M 96 107 Q 74 111 60 123 Q 38 140 32 174 L 32 339 L 37 359 L 49 379 Q 58 390 72 397 L 87 403 L 97 405 L 187 405 L 193 402 Q 198 398 200 391 L 200 383 L 195 373 L 186 368 L 102 368 Q 91 366 85 361 L 74 350 L 69 334 L 69 179 L 72 167 L 76 160 Q 84 147 102 144 L 186 144 L 195 139 L 200 130 Q 201 119 197 115 Q 193 109 187 107 L 96 107 Z M 326 107 L 320 110 Q 314 114 312 122 L 312 130 L 317 139 L 327 144 L 411 144 Q 421 146 428 151 L 438 163 L 443 179 L 443 334 L 440 346 L 436 353 Q 428 365 411 368 L 327 368 L 317 373 L 312 383 Q 311 393 315 398 Q 319 403 326 405 L 416 405 Q 439 401 454 388 Q 463 380 470 369 L 478 350 L 480 339 L 480 174 L 475 154 L 463 134 Q 448 115 422 108 Q 417 109 416 107 L 326 107 Z " /></svg>