<svg viewBox="0 0 512 512" version="1.1" xmlns="http://www.w3.org/2000/svg" desc="Created with imagetracer.js version 1.2.6" ><path fill="#000000" stroke="rgb(0,0,0)" stroke-width="0" opacity="1" d="M 73.5 32 L 198.5 32 Q 220.3 36.3 231 51.5 Q 237.6 60.4 240 73.5 L 240 145.5 Q 236.2 167.2 221.5 178 L 209.5 185 L 196.5 188 L 75.5 188 L 65.5 186 L 56.5 182 L 42 169.5 L 35 157.5 L 32 145.5 L 32 73.5 Q 36.3 51.8 51.5 41 Q 60.4 34.4 73.5 32 Z M 77 64 L 72 66 Q 66 69 64 77 L 64 144 L 67 150 Q 71 154 78 156 L 195 156 L 202 153 L 208 144 L 208 77 L 206 72 Q 203 66 196 64 L 77 64 Z " /><path fill="#000000" stroke="rgb(0,0,0)" stroke-width="0" opacity="1" d="M 313.5 32 L 438.5 32 Q 460.3 36.3 471 51.5 Q 477.6 60.4 480 73.5 L 480 256.5 Q 475.8 278.3 460.5 289 Q 451.6 295.6 438.5 298 L 313.5 298 Q 291.8 293.8 281 278.5 Q 274.4 269.6 272 256.5 L 272 73.5 Q 276.3 51.8 291.5 41 Q 300.4 34.4 313.5 32 Z M 317 64 L 312 66 Q 306 69 304 77 L 304 254 L 306 259 Q 309 264 317 266 L 436 266 L 441 264 Q 446 261 448 254 L 448 77 L 446 72 Q 443 66 436 64 L 317 64 Z " /><path fill="#000000" stroke="rgb(0,0,0)" stroke-width="0" opacity="1" d="M 73.5 214 L 198.5 214 Q 220.3 218.3 231 233.5 Q 237.6 242.4 240 255.5 L 240 438.5 Q 235.8 460.3 220.5 471 Q 211.6 477.6 198.5 480 L 73.5 480 Q 51.8 475.8 41 460.5 Q 34.4 451.6 32 438.5 L 32 255.5 Q 36.3 233.8 51.5 223 Q 60.4 216.4 73.5 214 Z M 77 246 L 72 248 Q 66 251 64 259 L 64 436 L 66 441 Q 69 446 77 448 L 196 448 L 201 446 Q 206 442 208 436 L 208 259 L 206 254 Q 203 248 196 246 L 77 246 Z " /><path fill="#000000" stroke="rgb(0,0,0)" stroke-width="0" opacity="1" d="M 315.5 324 L 436.5 324 L 446.5 326 L 455.5 330 L 470 342.5 L 477 354.5 L 480 366.5 L 480 438.5 Q 475.8 460.3 460.5 471 Q 451.6 477.6 438.5 480 L 313.5 480 Q 291.8 475.8 281 460.5 Q 274.4 451.6 272 438.5 L 272 366.5 Q 275.8 344.8 290.5 334 L 300.5 328 L 315.5 324 Z M 318 356 L 311 359 L 304 369 L 304 436 L 306 441 Q 309 446 317 448 L 436 448 L 441 446 Q 446 442 448 436 L 448 369 L 445 363 Q 441 358 435 356 L 318 356 Z " /><path fill="#000000" stroke="rgb(0,0,0)" stroke-width="0" opacity="0" d="M 0 0 L 512 0 L 512 512 L 0 512 L 0 0 Z M 74 32 Q 60 34 52 41 Q 36 52 32 74 L 32 146 L 35 158 L 42 170 L 57 182 L 66 186 L 76 188 L 197 188 L 210 185 L 222 178 Q 236 167 240 146 L 240 74 Q 238 60 231 52 Q 220 36 199 32 L 74 32 Z M 314 32 Q 300 34 292 41 Q 276 52 272 74 L 272 257 Q 274 270 281 279 Q 292 294 314 298 L 439 298 Q 452 296 461 289 Q 476 278 480 257 L 480 74 Q 478 60 471 52 Q 460 36 439 32 L 314 32 Z M 74 214 Q 60 216 52 223 Q 36 234 32 256 L 32 439 Q 34 452 41 461 Q 52 476 74 480 L 199 480 Q 212 478 221 471 Q 236 460 240 439 L 240 256 Q 238 242 231 234 Q 220 218 199 214 L 74 214 Z M 316 324 L 301 328 L 291 334 Q 276 345 272 367 L 272 439 Q 274 452 281 461 Q 292 476 314 480 L 439 480 Q 452 478 461 471 Q 476 460 480 439 L 480 367 L 477 355 L 470 343 L 456 330 L 447 326 L 437 324 L 316 324 Z " /><path fill="#000000" stroke="rgb(0,0,0)" stroke-width="0" opacity="0" d="M 76.5 64 L 195.5 64 Q 202.7 65.8 206 71.5 L 208 76.5 L 208 143.5 L 201.5 153 L 194.5 156 L 77.5 156 Q 70.5 154.4 67 149.5 L 64 143.5 L 64 76.5 Q 65.8 69.3 71.5 66 L 76.5 64 Z " /><path fill="#000000" stroke="rgb(0,0,0)" stroke-width="0" opacity="0" d="M 316.5 64 L 435.5 64 Q 442.7 65.8 446 71.5 L 448 76.5 L 448 253.5 Q 446.2 260.7 440.5 264 L 435.5 266 L 316.5 266 Q 309.3 264.2 306 258.5 L 304 253.5 L 304 76.5 Q 305.8 69.3 311.5 66 L 316.5 64 Z " /><path fill="#000000" stroke="rgb(0,0,0)" stroke-width="0" opacity="0" d="M 76.5 246 L 195.5 246 Q 202.7 247.8 206 253.5 L 208 258.5 L 208 435.5 Q 205.8 442.3 200.5 446 L 195.5 448 L 76.5 448 Q 69.3 446.2 66 440.5 L 64 435.5 L 64 258.5 Q 65.8 251.3 71.5 248 L 76.5 246 Z " /><path fill="#000000" stroke="rgb(0,0,0)" stroke-width="0" opacity="0" d="M 317.5 356 L 434.5 356 Q 441.4 357.6 445 362.5 L 448 368.5 L 448 435.5 Q 445.8 442.3 440.5 446 L 435.5 448 L 316.5 448 Q 309.3 446.2 306 440.5 L 304 435.5 L 304 368.5 L 310.5 359 L 317.5 356 Z " /></svg>